<svg width="45" height="43" viewBox="0 0 45 43" fill="none" xmlns="http://www.w3.org/2000/svg">
<g id="Logo">
<path id="Vector" d="M39.2266 34.863L41.3844 39.8263C41.7832 40.7412 42.8812 41.1739 43.8391 40.7938C44.7988 40.4176 45.2538 39.37 44.8562 38.4547L42.6989 33.4929L39.2266 34.863Z" fill="#333333"/>
<path id="Vector_2" d="M40.6665 38.1719L44.1382 36.8018L40.6665 38.1719Z" fill="#333333"/>
<path id="Vector_3" d="M34.6733 24.3872L39.5835 26.3249L34.6733 24.3872Z" fill="#333333"/>
<path id="Vector_4" d="M37.3457 14.3258C37.3457 16.9634 35.1029 19.101 32.3376 19.101C29.5695 19.101 27.3262 16.9634 27.3262 14.3258C27.3262 11.6888 29.5695 9.55225 32.3376 9.55225C35.1024 9.55225 37.3457 11.6888 37.3457 14.3258Z" fill="#333333"/>
<path id="Vector_5" d="M34.84 14.326C34.84 15.6456 33.7194 16.7147 32.3367 16.7147C30.9524 16.7147 29.8291 15.6456 29.8291 14.326C29.8291 13.0076 30.9524 11.9385 32.3367 11.9385C33.7194 11.9379 34.84 13.0076 34.84 14.326Z" fill="#333333"/>
<path id="Vector_6" d="M28.823 17.7295L21.9694 33.4935L20.2515 40.5676L21.4086 41.0245L25.4423 34.8636L26.402 32.6587C25.6533 30.9349 26.5111 28.9585 28.3196 28.2459L32.2936 19.0996C30.942 19.0889 29.7191 18.5685 28.823 17.7295Z" fill="#333333"/>
<path id="Vector_7" d="M35.8478 17.7285C34.9512 18.5687 33.7272 19.089 32.3755 19.0992L38.2706 32.6561L41.7413 31.2866L35.8478 17.7285Z" fill="#333333"/>
<path id="Vector_8" d="M34.2142 7.16409V1.7917C34.2136 0.801622 33.3698 0.000732422 32.3355 0.000732422C31.2976 0.000732422 30.4567 0.80054 30.4561 1.7917L30.4567 7.16409H34.2142Z" fill="#333333"/>
<path id="Vector_9" d="M32.337 9.5524C32.6571 9.5524 32.971 9.58304 33.2747 9.6379V7.16479H31.3965V9.6379C31.7014 9.5825 32.0136 9.5524 32.337 9.5524Z" fill="#333333"/>
<path id="Vector_10" d="M6.24944 43H0V0H6.25059C7.63153 0 8.75035 1.07018 8.75035 2.38976V40.6123H8.74982C8.74919 41.932 7.63038 43 6.24944 43Z" fill="#333333"/>
<path id="Vector_11" d="M5.93815 3.58404C6.45602 3.58404 6.87591 3.18288 6.87591 2.68802C6.87591 2.19316 6.45602 1.79199 5.93815 1.79199C5.42028 1.79199 5.00049 2.19316 5.00049 2.68802C5.00049 3.18288 5.42028 3.58404 5.93815 3.58404Z" fill="#333333"/>
<path id="Vector_12" d="M13.125 25.3843C13.125 25.8772 13.5452 26.2798 14.0627 26.2798C14.5807 26.2798 15.0004 25.8772 15.0004 25.3843C15.0004 25.8772 15.4212 26.2798 15.9381 26.2798C16.4562 26.2798 16.8757 25.8772 16.8757 25.3843C16.8757 25.8772 16.4562 26.2798 15.9381 26.2798C15.4212 26.2798 15.0004 25.8772 15.0004 25.3843C15.0004 25.8772 14.5807 26.2798 14.0627 26.2798C13.5452 26.2798 13.125 25.8772 13.125 25.3843Z" fill="#333333"/>
<path id="Vector_13" d="M14.3755 0C13.6858 0 13.125 0.535894 13.125 1.19595V1.19541V26.2792L14.9998 33.4458L16.8752 26.2792V1.19488V1.19541C16.8752 0.536432 16.315 0.000537262 15.6248 0.000537262L14.3755 0Z" fill="#333333"/>
</g>
</svg>
